<svg width="18" height="18" viewBox="0 0 18 18" fill="none" xmlns="http://www.w3.org/2000/svg">
<path opacity="0.5" d="M11.9895 9.00024C11.992 8.60643 11.9157 8.21609 11.7651 7.85225C11.6144 7.48841 11.3924 7.15844 11.1122 6.88179C10.8367 6.60347 10.5086 6.38282 10.1469 6.2327C9.78526 6.08258 9.39735 6.00601 9.0058 6.00744C8.61238 6.00432 8.22231 6.07999 7.85858 6.22997C7.49484 6.37995 7.16478 6.60121 6.88784 6.88073C6.60839 7.15773 6.38717 7.48787 6.23723 7.85169C6.08728 8.21552 6.01164 8.60567 6.01475 8.99919C6.00998 9.39206 6.08373 9.78192 6.23168 10.1459C6.37962 10.5099 6.59877 10.8406 6.87626 11.1187C7.1545 11.3982 7.48596 11.619 7.85101 11.7681C8.21606 11.9172 8.6073 11.9915 9.00159 11.9867C9.39306 11.9883 9.78093 11.9119 10.1426 11.7619C10.5042 11.612 10.8324 11.3915 11.108 11.1134C11.3882 10.8368 11.6102 10.5068 11.7608 10.143C11.9115 9.77912 11.9878 9.38878 11.9853 8.99497L11.9895 9.00024ZM13.6156 9.00024C13.6129 10.2252 13.1256 11.3992 12.2601 12.2659C11.3947 13.1289 10.2236 13.615 9.00159 13.6185C7.77695 13.6158 6.60315 13.1284 5.73671 12.2627C4.87124 11.3961 4.38392 10.222 4.38126 8.99708C4.38392 7.77215 4.87124 6.59808 5.73671 5.73144C6.60297 4.86537 7.77679 4.37756 9.00159 4.37462C10.2262 4.37728 11.4 4.86471 12.2665 5.73039C13.1308 6.59754 13.6169 7.77155 13.6188 8.99603L13.6156 9.00024ZM14.8794 4.20185C14.8767 4.48771 14.7635 4.76142 14.5635 4.96559C14.4635 5.06528 14.3442 5.14343 14.2128 5.19525C14.0815 5.24706 13.941 5.27144 13.7999 5.26688C13.6588 5.27144 13.5183 5.24706 13.387 5.19525C13.2556 5.14343 13.1363 5.06528 13.0363 4.96559C12.9367 4.86559 12.8585 4.74624 12.8067 4.61489C12.7549 4.48354 12.7306 4.34298 12.7351 4.20185C12.7306 4.06073 12.7549 3.92016 12.8067 3.78882C12.8585 3.65747 12.9367 3.53812 13.0363 3.43812C13.1363 3.33843 13.2556 3.26028 13.387 3.20846C13.5183 3.15665 13.6588 3.13227 13.7999 3.13683C13.941 3.13227 14.0815 3.15665 14.2128 3.20846C14.3442 3.26028 14.4635 3.33843 14.5635 3.43812C14.7632 3.64203 14.8765 3.91531 14.8794 4.2008V4.20185ZM9.00159 1.62937C8.2791 1.61603 7.37898 1.61603 6.30122 1.62937C5.42127 1.61367 4.54427 1.73558 3.70196 1.9907C3.50955 2.06685 3.32477 2.16103 3.15009 2.27197C2.97562 2.38478 2.81389 2.51617 2.66773 2.66384C2.52009 2.81004 2.38873 2.97181 2.27594 3.14632C2.16503 3.32104 2.07087 3.50586 1.99474 3.69831C1.73968 4.54083 1.6178 5.41803 1.6335 6.29819C1.61805 7.3762 1.61033 8.27688 1.61033 9.00024C1.61033 9.7236 1.617 10.6239 1.63034 11.7012C1.61533 12.5826 1.73829 13.4609 1.99474 14.3043C2.07087 14.4967 2.16503 14.6815 2.27594 14.8563C2.38873 15.0308 2.52009 15.1925 2.66773 15.3387C2.81389 15.4864 2.97562 15.6178 3.15009 15.7306C3.32477 15.8416 3.50955 15.9357 3.70196 16.0119C4.54427 16.267 5.42127 16.3889 6.30122 16.3732C7.37828 16.3866 8.2784 16.3932 9.00159 16.3932C9.72478 16.3932 10.6249 16.3866 11.702 16.3732C12.5819 16.3889 13.4589 16.267 14.3012 16.0119C14.4936 15.9357 14.6784 15.8416 14.8531 15.7306C15.0276 15.6178 15.1893 15.4864 15.3354 15.3387C15.4831 15.1925 15.6144 15.0308 15.7272 14.8563C15.8381 14.6815 15.9323 14.4967 16.0084 14.3043C16.2635 13.4618 16.3854 12.5846 16.3697 11.7044C16.383 10.6271 16.3897 9.72676 16.3897 9.0034C16.3897 8.28004 16.3827 7.37831 16.3686 6.29819C16.3843 5.41803 16.2624 4.54083 16.0074 3.69831C15.9312 3.50586 15.8371 3.32104 15.7262 3.14632C15.6134 2.9718 15.482 2.81003 15.3344 2.66384C15.1882 2.51617 15.0265 2.38478 14.852 2.27197C14.6774 2.16103 14.4926 2.06685 14.3002 1.9907C13.4578 1.73558 12.5809 1.61367 11.7009 1.62937C10.6217 1.61603 9.72197 1.61603 9.00159 1.62937ZM17.9958 9.0034C18.0091 10.2352 17.9891 11.4733 17.9358 12.7178C17.9149 13.4078 17.7932 14.091 17.5745 14.7457C17.3447 15.3977 16.9669 15.9876 16.4708 16.4691C15.9879 16.9647 15.3967 17.3415 14.7436 17.5699C14.089 17.7887 13.406 17.9104 12.7162 17.9312C11.4685 17.9881 10.2303 18.0081 9.00159 17.9913C7.77006 18.0081 6.53187 17.9895 5.287 17.9355C4.59699 17.9133 3.91395 17.7901 3.25962 17.5699C2.60547 17.3423 2.01312 16.9658 1.52923 16.4701C1.03258 15.9875 0.654748 15.3961 0.425495 14.7425C0.206793 14.0878 0.0850886 13.4046 0.0642526 12.7146C0.0101891 11.4716 -0.00982152 10.2335 0.00422096 9.00024C-0.0091194 7.76843 0.0108912 6.53029 0.0642526 5.28584C0.0850886 4.59587 0.206793 3.91268 0.425495 3.25798C0.654748 2.60441 1.03258 2.013 1.52923 1.53035C2.01147 1.03372 2.60237 0.655804 3.25541 0.426352C3.90995 0.207599 4.59299 0.0858672 5.28279 0.0650263C6.52765 0.0116524 7.7655 -0.00836399 8.99632 0.00497948C10.2278 -0.00836399 11.4657 0.0116524 12.7099 0.0650263C13.3997 0.0858672 14.0827 0.207599 14.7372 0.426352C15.389 0.655934 15.9788 1.03346 16.4603 1.5293C16.9568 2.01165 17.3346 2.60268 17.564 3.25587C17.7827 3.91057 17.9044 4.59377 17.9252 5.28373C17.98 6.5317 18.0007 7.77018 17.9874 8.99919L17.9958 9.0034Z" fill="#0C2050"/>
</svg>
