<svg width="18" height="15" viewBox="0 0 18 15" fill="none" xmlns="http://www.w3.org/2000/svg">
<path opacity="0.5" d="M17.9999 1.78244C17.3247 2.08497 16.6103 2.2854 15.8789 2.37748C16.2598 2.1406 16.5969 1.83669 16.8749 1.47972C17.1557 1.11954 17.3701 0.709827 17.5075 0.27071C16.7806 0.715593 15.9836 1.02678 15.1523 1.19024C14.814 0.818922 14.4063 0.521315 13.9534 0.315174C13.4831 0.10171 12.9737 -0.00602554 12.4595 -0.000794823C11.9745 -0.00235984 11.494 0.0948325 11.0458 0.285152C10.5977 0.475472 10.1908 0.755134 9.84881 1.10793C9.5049 1.45879 9.23229 1.87617 9.04676 2.3359C8.86124 2.79562 8.76649 3.28854 8.76802 3.7861C8.76848 4.07719 8.7994 4.36738 8.86024 4.6517C7.37108 4.57141 5.91534 4.16873 4.58871 3.47013C3.30123 2.78857 2.16549 1.84058 1.25319 0.686011C0.934744 1.27027 0.765355 1.92759 0.760743 2.59696C0.752867 3.22956 0.903371 3.85365 1.19786 4.40952C1.48541 4.95114 1.89679 5.41308 2.39669 5.7557C1.80895 5.73828 1.23393 5.57605 0.720167 5.28269V5.31864C0.722672 6.19943 1.02173 7.05228 1.56673 7.73287C2.10681 8.4035 2.85601 8.8623 3.68774 9.03175C3.36906 9.12961 3.03826 9.17964 2.70562 9.18027C2.4751 9.18081 2.24516 9.15671 2.01952 9.10837C2.24881 9.85383 2.70038 10.5067 3.31057 10.9749C3.93378 11.4526 4.6861 11.7204 5.46385 11.7411C4.82349 12.2484 4.1072 12.6459 3.34284 12.918C2.54854 13.2033 1.71388 13.3525 0.872326 13.3598C0.580423 13.3592 0.288808 13.3409 -0.000976562 13.3049C0.825136 13.8487 1.72166 14.2706 2.66227 14.5584C3.6348 14.8555 4.64462 15.0043 5.65935 15.0002C9.07019 14.8683 11.672 13.6991 13.4647 11.4923C15.1867 9.47758 16.1471 6.89596 16.1713 4.21654C16.1713 4.06013 16.1654 3.89773 16.1537 3.72934C16.8734 3.19592 17.4975 2.53847 17.9981 1.78623L17.9999 1.78244Z" fill="#0C2050"/>
</svg>
