<svg width="18" height="13" viewBox="0 0 18 13" fill="none" xmlns="http://www.w3.org/2000/svg">
<path opacity="0.5" d="M17.6135 2.04821C17.8005 2.95966 17.9092 3.88616 17.9383 4.81708C17.9794 5.8479 18 6.41142 18 6.50765C18 6.60387 17.9794 7.16708 17.9383 8.19727C17.9093 9.1285 17.8005 10.0553 17.6135 10.9671C17.5016 11.3562 17.3002 11.7121 17.0263 12.0048C16.7507 12.299 16.3998 12.5076 16.0139 12.6067C14.6823 12.8251 13.336 12.9364 11.9874 12.9397C10.2044 12.9819 9.20738 13.0029 8.99632 13.0029C8.78525 13.0029 7.78822 12.9819 6.00522 12.9397C4.65664 12.9364 3.31038 12.8251 1.97873 12.6067C1.5928 12.5076 1.24193 12.299 0.966357 12.0048C0.695415 11.7112 0.496928 11.3554 0.387463 10.9671C0.199807 10.0557 0.0904817 9.12918 0.0607424 8.19821C0.0202475 7.16739 0 6.60387 0 6.50765C0 6.41142 0.0205543 5.8479 0.0616627 4.81708C0.0910991 3.88614 0.200117 2.95963 0.387463 2.04821C0.496554 1.65789 0.69829 1.30136 0.97464 1.01048C1.25243 0.721001 1.60274 0.515674 1.98701 0.41708C3.31722 0.184731 4.66412 0.0673377 6.0135 0.0661367C7.7965 0.0239983 8.79354 0.00292969 9.0046 0.00292969C9.21566 0.00292969 10.2127 0.0239983 11.9957 0.0661367C13.3451 0.0673377 14.692 0.184731 16.0222 0.41708C16.4065 0.515674 16.7568 0.721001 17.0346 1.01048C17.3099 1.30166 17.5107 1.65817 17.619 2.04821H17.6135ZM7.15748 9.24067L11.8613 6.50482L7.15748 3.7567V9.24067Z" fill="#0C2050"/>
</svg>
